M48
; DRILL file {KiCad 6.0.2-378541a8eb~116~ubuntu20.04.1} date Mon 14 Feb 2022 04:31:54 PM PST
; FORMAT={-:-/ absolute / metric / decimal}
; #@! TF.CreationDate,2022-02-14T16:31:54-08:00
; #@! TF.GenerationSoftware,Kicad,Pcbnew,6.0.2-378541a8eb~116~ubuntu20.04.1
; #@! TF.FileFunction,Plated,1,2,PTH
FMAT,2
METRIC
; #@! TA.AperFunction,Plated,PTH,ViaDrill
T1C0.400
; #@! TA.AperFunction,Plated,PTH,ComponentDrill
T2C0.800
; #@! TA.AperFunction,Plated,PTH,ComponentDrill
T3C1.000
; #@! TA.AperFunction,Plated,PTH,ComponentDrill
T4C1.016
; #@! TA.AperFunction,Plated,PTH,ComponentDrill
T5C3.048
%
G90
G05
T1
X129.794Y-116.713
X150.876Y-84.455
X150.876Y-91.059
X161.544Y-88.265
X166.878Y-82.931
T2
X135.128Y-80.645
X135.128Y-90.805
X137.668Y-80.645
X137.668Y-90.805
X140.208Y-80.645
X140.208Y-90.805
X142.748Y-80.645
X142.748Y-90.805
X145.288Y-80.645
X145.288Y-90.805
X147.828Y-80.645
X147.828Y-90.805
X153.924Y-79.375
X153.924Y-81.915
X153.924Y-84.455
X153.924Y-86.995
X153.924Y-89.535
X153.924Y-92.075
X171.704Y-79.375
X171.704Y-81.915
X171.704Y-84.455
X171.704Y-86.995
X171.704Y-89.535
X171.704Y-92.075
T3
X112.498Y-95.865
X112.498Y-102.865
X112.498Y-109.365
X112.498Y-124.865
X124.714Y-90.805
X126.238Y-81.915
X126.238Y-84.455
X127.254Y-90.805
X129.794Y-90.805
X132.498Y-112.365
X132.498Y-121.865
X136.398Y-106.045
X136.398Y-108.585
X136.398Y-111.125
X136.398Y-113.665
X136.398Y-116.205
X136.398Y-118.745
X139.954Y-97.892
X142.494Y-97.892
X145.034Y-97.892
T4
X129.794Y-75.565
X132.334Y-75.565
X134.874Y-75.565
X137.414Y-75.565
X138.938Y-123.825
X139.954Y-75.565
X141.478Y-123.825
X142.494Y-75.565
X144.018Y-123.825
X145.034Y-75.565
X146.558Y-123.825
X147.574Y-75.565
X149.098Y-123.825
X150.114Y-75.565
X151.638Y-123.825
X152.654Y-75.565
X154.178Y-123.825
X156.718Y-75.565
X156.718Y-123.825
X159.258Y-75.565
X161.798Y-75.565
X161.798Y-123.825
X164.338Y-75.565
X164.338Y-123.825
X166.878Y-75.565
X166.878Y-123.825
X169.418Y-75.565
X169.418Y-123.825
X171.958Y-75.565
X171.958Y-123.825
X174.498Y-75.565
X174.498Y-123.825
T5
X124.968Y-123.825
X126.238Y-75.565
X177.038Y-90.805
X177.038Y-118.745
T0
M30
