G04 #@! TF.GenerationSoftware,KiCad,Pcbnew,6.0.2-378541a8eb~116~ubuntu20.04.1*
G04 #@! TF.CreationDate,2022-02-14T16:30:42-08:00*
G04 #@! TF.ProjectId,Air_Bearing_PCB,4169725f-4265-4617-9269-6e675f504342,rev?*
G04 #@! TF.SameCoordinates,Original*
G04 #@! TF.FileFunction,Soldermask,Top*
G04 #@! TF.FilePolarity,Negative*
%FSLAX46Y46*%
G04 Gerber Fmt 4.6, Leading zero omitted, Abs format (unit mm)*
G04 Created by KiCad (PCBNEW 6.0.2-378541a8eb~116~ubuntu20.04.1) date 2022-02-14 16:30:42*
%MOMM*%
%LPD*%
G01*
G04 APERTURE LIST*
G04 Aperture macros list*
%AMRoundRect*
0 Rectangle with rounded corners*
0 $1 Rounding radius*
0 $2 $3 $4 $5 $6 $7 $8 $9 X,Y pos of 4 corners*
0 Add a 4 corners polygon primitive as box body*
4,1,4,$2,$3,$4,$5,$6,$7,$8,$9,$2,$3,0*
0 Add four circle primitives for the rounded corners*
1,1,$1+$1,$2,$3*
1,1,$1+$1,$4,$5*
1,1,$1+$1,$6,$7*
1,1,$1+$1,$8,$9*
0 Add four rect primitives between the rounded corners*
20,1,$1+$1,$2,$3,$4,$5,0*
20,1,$1+$1,$4,$5,$6,$7,0*
20,1,$1+$1,$6,$7,$8,$9,0*
20,1,$1+$1,$8,$9,$2,$3,0*%
%AMFreePoly0*
4,1,22,0.500000,-0.750000,0.000000,-0.750000,0.000000,-0.745033,-0.079941,-0.743568,-0.215256,-0.701293,-0.333266,-0.622738,-0.424486,-0.514219,-0.481581,-0.384460,-0.499164,-0.250000,-0.500000,-0.250000,-0.500000,0.250000,-0.499164,0.250000,-0.499963,0.256109,-0.478152,0.396186,-0.417904,0.524511,-0.324060,0.630769,-0.204165,0.706417,-0.067858,0.745374,0.000000,0.744959,0.000000,0.750000,
0.500000,0.750000,0.500000,-0.750000,0.500000,-0.750000,$1*%
%AMFreePoly1*
4,1,20,0.000000,0.744959,0.073905,0.744508,0.209726,0.703889,0.328688,0.626782,0.421226,0.519385,0.479903,0.390333,0.500000,0.250000,0.500000,-0.250000,0.499851,-0.262216,0.476331,-0.402017,0.414519,-0.529596,0.319384,-0.634700,0.198574,-0.708877,0.061801,-0.746166,0.000000,-0.745033,0.000000,-0.750000,-0.500000,-0.750000,-0.500000,0.750000,0.000000,0.750000,0.000000,0.744959,
0.000000,0.744959,$1*%
G04 Aperture macros list end*
%ADD10O,1.727200X2.032000*%
%ADD11C,4.064000*%
%ADD12RoundRect,0.237500X-0.250000X-0.237500X0.250000X-0.237500X0.250000X0.237500X-0.250000X0.237500X0*%
%ADD13R,1.700000X1.700000*%
%ADD14O,1.700000X1.700000*%
%ADD15FreePoly0,270.000000*%
%ADD16FreePoly1,270.000000*%
%ADD17O,1.200000X2.000000*%
%ADD18C,1.700000*%
%ADD19O,2.000000X1.200000*%
%ADD20RoundRect,0.237500X0.250000X0.237500X-0.250000X0.237500X-0.250000X-0.237500X0.250000X-0.237500X0*%
G04 APERTURE END LIST*
D10*
G04 #@! TO.C,P1*
X138938000Y-123825000D03*
X141478000Y-123825000D03*
X144018000Y-123825000D03*
X146558000Y-123825000D03*
X149098000Y-123825000D03*
X151638000Y-123825000D03*
X154178000Y-123825000D03*
X156718000Y-123825000D03*
G04 #@! TD*
G04 #@! TO.C,P2*
X161798000Y-123825000D03*
X164338000Y-123825000D03*
X166878000Y-123825000D03*
X169418000Y-123825000D03*
X171958000Y-123825000D03*
X174498000Y-123825000D03*
G04 #@! TD*
G04 #@! TO.C,P3*
X129794000Y-75565000D03*
X132334000Y-75565000D03*
X134874000Y-75565000D03*
X137414000Y-75565000D03*
X139954000Y-75565000D03*
X142494000Y-75565000D03*
X145034000Y-75565000D03*
X147574000Y-75565000D03*
X150114000Y-75565000D03*
X152654000Y-75565000D03*
G04 #@! TD*
G04 #@! TO.C,P4*
X156718000Y-75565000D03*
X159258000Y-75565000D03*
X161798000Y-75565000D03*
X164338000Y-75565000D03*
X166878000Y-75565000D03*
X169418000Y-75565000D03*
X171958000Y-75565000D03*
X174498000Y-75565000D03*
G04 #@! TD*
D11*
G04 #@! TO.C,P5*
X124968000Y-123825000D03*
G04 #@! TD*
G04 #@! TO.C,P6*
X177038000Y-118745000D03*
G04 #@! TD*
G04 #@! TO.C,P7*
X126238000Y-75565000D03*
G04 #@! TD*
G04 #@! TO.C,P8*
X177038000Y-90805000D03*
G04 #@! TD*
D12*
G04 #@! TO.C,R2*
X130405500Y-78105000D03*
X132230500Y-78105000D03*
G04 #@! TD*
D13*
G04 #@! TO.C,J3*
X136398000Y-106045000D03*
D14*
X136398000Y-108585000D03*
X136398000Y-111125000D03*
X136398000Y-113665000D03*
X136398000Y-116205000D03*
X136398000Y-118745000D03*
G04 #@! TD*
D13*
G04 #@! TO.C,J2*
X126238000Y-81915000D03*
D14*
X126238000Y-84455000D03*
G04 #@! TD*
D15*
G04 #@! TO.C,JP1*
X176276000Y-99045000D03*
D16*
X176276000Y-100345000D03*
G04 #@! TD*
D17*
G04 #@! TO.C,U2*
X135128000Y-90805000D03*
X137668000Y-90805000D03*
X140208000Y-90805000D03*
X142748000Y-90805000D03*
X145288000Y-90805000D03*
X147828000Y-90805000D03*
X147828000Y-80645000D03*
X145288000Y-80645000D03*
X142748000Y-80645000D03*
X140208000Y-80645000D03*
X137668000Y-80645000D03*
X135128000Y-80645000D03*
G04 #@! TD*
D13*
G04 #@! TO.C,SW1*
X129794000Y-90805000D03*
D14*
X127254000Y-90805000D03*
X124714000Y-90805000D03*
G04 #@! TD*
D15*
G04 #@! TO.C,JP2*
X176276000Y-109459000D03*
D16*
X176276000Y-110759000D03*
G04 #@! TD*
D13*
G04 #@! TO.C,J1*
X145034000Y-97892000D03*
D14*
X142494000Y-97892000D03*
X139954000Y-97892000D03*
G04 #@! TD*
D18*
G04 #@! TO.C,U1*
X112498000Y-109365000D03*
X112498000Y-124865000D03*
X112498000Y-102865000D03*
X132498000Y-121865000D03*
X132498000Y-112365000D03*
X112498000Y-95865000D03*
G04 #@! TD*
D12*
G04 #@! TO.C,R3*
X170283500Y-100457000D03*
X172108500Y-100457000D03*
G04 #@! TD*
D19*
G04 #@! TO.C,U3*
X153924000Y-79375000D03*
X153924000Y-81915000D03*
X153924000Y-84455000D03*
X153924000Y-86995000D03*
X153924000Y-89535000D03*
X153924000Y-92075000D03*
X171704000Y-92075000D03*
X171704000Y-89535000D03*
X171704000Y-86995000D03*
X171704000Y-84455000D03*
X171704000Y-81915000D03*
X171704000Y-79375000D03*
G04 #@! TD*
D20*
G04 #@! TO.C,R1*
X136802500Y-78105000D03*
X134977500Y-78105000D03*
G04 #@! TD*
M02*
