%FSLAX45Y45*%
G04 Gerber Fmt 4.5, Leading zero omitted, Abs format (unit mm)*
G04 Created by KiCad (PCBNEW 6.0.2-378541a8eb~116~ubuntu20.04.1) date 2022-02-14 16:32:25*
%MOMM*%
%LPD*%
G01*
G04 APERTURE LIST*
%TA.AperFunction,Profile*%
%ADD10C,0.150000*%
%TD*%
%ADD11C,0.200000*%
%ADD12C,0.040000*%
%ADD13C,0.080000*%
%ADD14C,0.100000*%
%ADD15C,0.101600*%
%ADD16C,0.304800*%
G04 APERTURE END LIST*
D10*
X17957800Y-8851900D02*
X17703800Y-8597900D01*
X17703800Y-12636500D02*
X17703800Y-12382500D01*
X17703800Y-7454900D02*
X17551400Y-7302500D01*
X17703800Y-12382500D02*
X17957800Y-12128500D01*
X11099800Y-7302500D02*
X11099800Y-12636500D01*
X17957800Y-12128500D02*
X17957800Y-8851900D01*
X11099800Y-12636500D02*
X17703800Y-12636500D01*
X17551400Y-7302500D02*
X11099800Y-7302500D01*
X17703800Y-8597900D02*
X17703800Y-7454900D01*
D11*
D12*
X12959400Y-11651300D02*
X12999400Y-11691300D01*
X12999400Y-11651300D02*
X12959400Y-11691300D01*
X15067600Y-8425500D02*
X15107600Y-8465500D01*
X15107600Y-8425500D02*
X15067600Y-8465500D01*
X15067600Y-9085900D02*
X15107600Y-9125900D01*
X15107600Y-9085900D02*
X15067600Y-9125900D01*
X16134400Y-8806500D02*
X16174400Y-8846500D01*
X16174400Y-8806500D02*
X16134400Y-8846500D01*
X16667800Y-8273100D02*
X16707800Y-8313100D01*
X16707800Y-8273100D02*
X16667800Y-8313100D01*
D13*
X13552800Y-8064500D02*
G75*
G03*
X13552800Y-8064500I-40000J0D01*
G01*
X13552800Y-9080500D02*
G75*
G03*
X13552800Y-9080500I-40000J0D01*
G01*
X13806800Y-8064500D02*
G75*
G03*
X13806800Y-8064500I-40000J0D01*
G01*
X13806800Y-9080500D02*
G75*
G03*
X13806800Y-9080500I-40000J0D01*
G01*
X14060800Y-8064500D02*
G75*
G03*
X14060800Y-8064500I-40000J0D01*
G01*
X14060800Y-9080500D02*
G75*
G03*
X14060800Y-9080500I-40000J0D01*
G01*
X14314800Y-8064500D02*
G75*
G03*
X14314800Y-8064500I-40000J0D01*
G01*
X14314800Y-9080500D02*
G75*
G03*
X14314800Y-9080500I-40000J0D01*
G01*
X14568800Y-8064500D02*
G75*
G03*
X14568800Y-8064500I-40000J0D01*
G01*
X14568800Y-9080500D02*
G75*
G03*
X14568800Y-9080500I-40000J0D01*
G01*
X14822800Y-8064500D02*
G75*
G03*
X14822800Y-8064500I-40000J0D01*
G01*
X14822800Y-9080500D02*
G75*
G03*
X14822800Y-9080500I-40000J0D01*
G01*
X15432400Y-7937500D02*
G75*
G03*
X15432400Y-7937500I-40000J0D01*
G01*
X15432400Y-8191500D02*
G75*
G03*
X15432400Y-8191500I-40000J0D01*
G01*
X15432400Y-8445500D02*
G75*
G03*
X15432400Y-8445500I-40000J0D01*
G01*
X15432400Y-8699500D02*
G75*
G03*
X15432400Y-8699500I-40000J0D01*
G01*
X15432400Y-8953500D02*
G75*
G03*
X15432400Y-8953500I-40000J0D01*
G01*
X15432400Y-9207500D02*
G75*
G03*
X15432400Y-9207500I-40000J0D01*
G01*
X17210400Y-7937500D02*
G75*
G03*
X17210400Y-7937500I-40000J0D01*
G01*
X17210400Y-8191500D02*
G75*
G03*
X17210400Y-8191500I-40000J0D01*
G01*
X17210400Y-8445500D02*
G75*
G03*
X17210400Y-8445500I-40000J0D01*
G01*
X17210400Y-8699500D02*
G75*
G03*
X17210400Y-8699500I-40000J0D01*
G01*
X17210400Y-8953500D02*
G75*
G03*
X17210400Y-8953500I-40000J0D01*
G01*
X17210400Y-9207500D02*
G75*
G03*
X17210400Y-9207500I-40000J0D01*
G01*
D14*
X11249800Y-9536500D02*
X11249800Y-9636500D01*
X11199800Y-9586500D02*
X11299800Y-9586500D01*
X11249800Y-10236500D02*
X11249800Y-10336500D01*
X11199800Y-10286500D02*
X11299800Y-10286500D01*
X11249800Y-10886500D02*
X11249800Y-10986500D01*
X11199800Y-10936500D02*
X11299800Y-10936500D01*
X11249800Y-12436500D02*
X11249800Y-12536500D01*
X11199800Y-12486500D02*
X11299800Y-12486500D01*
X12471400Y-9030500D02*
X12471400Y-9130500D01*
X12421400Y-9080500D02*
X12521400Y-9080500D01*
X12623800Y-8141500D02*
X12623800Y-8241500D01*
X12573800Y-8191500D02*
X12673800Y-8191500D01*
X12623800Y-8395500D02*
X12623800Y-8495500D01*
X12573800Y-8445500D02*
X12673800Y-8445500D01*
X12725400Y-9030500D02*
X12725400Y-9130500D01*
X12675400Y-9080500D02*
X12775400Y-9080500D01*
X12979400Y-9030500D02*
X12979400Y-9130500D01*
X12929400Y-9080500D02*
X13029400Y-9080500D01*
X13249800Y-11186500D02*
X13249800Y-11286500D01*
X13199800Y-11236500D02*
X13299800Y-11236500D01*
X13249800Y-12136500D02*
X13249800Y-12236500D01*
X13199800Y-12186500D02*
X13299800Y-12186500D01*
X13639800Y-10554500D02*
X13639800Y-10654500D01*
X13589800Y-10604500D02*
X13689800Y-10604500D01*
X13639800Y-10808500D02*
X13639800Y-10908500D01*
X13589800Y-10858500D02*
X13689800Y-10858500D01*
X13639800Y-11062500D02*
X13639800Y-11162500D01*
X13589800Y-11112500D02*
X13689800Y-11112500D01*
X13639800Y-11316500D02*
X13639800Y-11416500D01*
X13589800Y-11366500D02*
X13689800Y-11366500D01*
X13639800Y-11570500D02*
X13639800Y-11670500D01*
X13589800Y-11620500D02*
X13689800Y-11620500D01*
X13639800Y-11824500D02*
X13639800Y-11924500D01*
X13589800Y-11874500D02*
X13689800Y-11874500D01*
X13995400Y-9739200D02*
X13995400Y-9839200D01*
X13945400Y-9789200D02*
X14045400Y-9789200D01*
X14249400Y-9739200D02*
X14249400Y-9839200D01*
X14199400Y-9789200D02*
X14299400Y-9789200D01*
X14503400Y-9739200D02*
X14503400Y-9839200D01*
X14453400Y-9789200D02*
X14553400Y-9789200D01*
D15*
X13015321Y-7592421D02*
X13015321Y-7520579D01*
X12943479Y-7520579D01*
X12943479Y-7592421D01*
X13015321Y-7592421D01*
X13269321Y-7592421D02*
X13269321Y-7520579D01*
X13197479Y-7520579D01*
X13197479Y-7592421D01*
X13269321Y-7592421D01*
X13523321Y-7592421D02*
X13523321Y-7520579D01*
X13451479Y-7520579D01*
X13451479Y-7592421D01*
X13523321Y-7592421D01*
X13777321Y-7592421D02*
X13777321Y-7520579D01*
X13705479Y-7520579D01*
X13705479Y-7592421D01*
X13777321Y-7592421D01*
X13929721Y-12418421D02*
X13929721Y-12346579D01*
X13857879Y-12346579D01*
X13857879Y-12418421D01*
X13929721Y-12418421D01*
X14031321Y-7592421D02*
X14031321Y-7520579D01*
X13959479Y-7520579D01*
X13959479Y-7592421D01*
X14031321Y-7592421D01*
X14183721Y-12418421D02*
X14183721Y-12346579D01*
X14111879Y-12346579D01*
X14111879Y-12418421D01*
X14183721Y-12418421D01*
X14285321Y-7592421D02*
X14285321Y-7520579D01*
X14213479Y-7520579D01*
X14213479Y-7592421D01*
X14285321Y-7592421D01*
X14437721Y-12418421D02*
X14437721Y-12346579D01*
X14365879Y-12346579D01*
X14365879Y-12418421D01*
X14437721Y-12418421D01*
X14539321Y-7592421D02*
X14539321Y-7520579D01*
X14467479Y-7520579D01*
X14467479Y-7592421D01*
X14539321Y-7592421D01*
X14691721Y-12418421D02*
X14691721Y-12346579D01*
X14619879Y-12346579D01*
X14619879Y-12418421D01*
X14691721Y-12418421D01*
X14793321Y-7592421D02*
X14793321Y-7520579D01*
X14721479Y-7520579D01*
X14721479Y-7592421D01*
X14793321Y-7592421D01*
X14945721Y-12418421D02*
X14945721Y-12346579D01*
X14873879Y-12346579D01*
X14873879Y-12418421D01*
X14945721Y-12418421D01*
X15047321Y-7592421D02*
X15047321Y-7520579D01*
X14975479Y-7520579D01*
X14975479Y-7592421D01*
X15047321Y-7592421D01*
X15199721Y-12418421D02*
X15199721Y-12346579D01*
X15127879Y-12346579D01*
X15127879Y-12418421D01*
X15199721Y-12418421D01*
X15301321Y-7592421D02*
X15301321Y-7520579D01*
X15229479Y-7520579D01*
X15229479Y-7592421D01*
X15301321Y-7592421D01*
X15453721Y-12418421D02*
X15453721Y-12346579D01*
X15381879Y-12346579D01*
X15381879Y-12418421D01*
X15453721Y-12418421D01*
X15707721Y-7592421D02*
X15707721Y-7520579D01*
X15635879Y-7520579D01*
X15635879Y-7592421D01*
X15707721Y-7592421D01*
X15707721Y-12418421D02*
X15707721Y-12346579D01*
X15635879Y-12346579D01*
X15635879Y-12418421D01*
X15707721Y-12418421D01*
X15961721Y-7592421D02*
X15961721Y-7520579D01*
X15889879Y-7520579D01*
X15889879Y-7592421D01*
X15961721Y-7592421D01*
X16215721Y-7592421D02*
X16215721Y-7520579D01*
X16143879Y-7520579D01*
X16143879Y-7592421D01*
X16215721Y-7592421D01*
X16215721Y-12418421D02*
X16215721Y-12346579D01*
X16143879Y-12346579D01*
X16143879Y-12418421D01*
X16215721Y-12418421D01*
X16469721Y-7592421D02*
X16469721Y-7520579D01*
X16397879Y-7520579D01*
X16397879Y-7592421D01*
X16469721Y-7592421D01*
X16469721Y-12418421D02*
X16469721Y-12346579D01*
X16397879Y-12346579D01*
X16397879Y-12418421D01*
X16469721Y-12418421D01*
X16723721Y-7592421D02*
X16723721Y-7520579D01*
X16651879Y-7520579D01*
X16651879Y-7592421D01*
X16723721Y-7592421D01*
X16723721Y-12418421D02*
X16723721Y-12346579D01*
X16651879Y-12346579D01*
X16651879Y-12418421D01*
X16723721Y-12418421D01*
X16977721Y-7592421D02*
X16977721Y-7520579D01*
X16905879Y-7520579D01*
X16905879Y-7592421D01*
X16977721Y-7592421D01*
X16977721Y-12418421D02*
X16977721Y-12346579D01*
X16905879Y-12346579D01*
X16905879Y-12418421D01*
X16977721Y-12418421D01*
X17231721Y-7592421D02*
X17231721Y-7520579D01*
X17159879Y-7520579D01*
X17159879Y-7592421D01*
X17231721Y-7592421D01*
X17231721Y-12418421D02*
X17231721Y-12346579D01*
X17159879Y-12346579D01*
X17159879Y-12418421D01*
X17231721Y-12418421D01*
X17485721Y-7592421D02*
X17485721Y-7520579D01*
X17413879Y-7520579D01*
X17413879Y-7592421D01*
X17485721Y-7592421D01*
X17485721Y-12418421D02*
X17485721Y-12346579D01*
X17413879Y-12346579D01*
X17413879Y-12418421D01*
X17485721Y-12418421D01*
D16*
X12496800Y-12534900D02*
X12649200Y-12382500D01*
X12496800Y-12230100D01*
X12344400Y-12382500D01*
X12496800Y-12534900D01*
X12623800Y-7708900D02*
X12776200Y-7556500D01*
X12623800Y-7404100D01*
X12471400Y-7556500D01*
X12623800Y-7708900D01*
X17703800Y-9232900D02*
X17856200Y-9080500D01*
X17703800Y-8928100D01*
X17551400Y-9080500D01*
X17703800Y-9232900D01*
X17703800Y-12026900D02*
X17856200Y-11874500D01*
X17703800Y-11722100D01*
X17551400Y-11874500D01*
X17703800Y-12026900D01*
D11*
X11349919Y-12954476D02*
X11349919Y-12754476D01*
X11397538Y-12754476D01*
X11426109Y-12764000D01*
X11445157Y-12783048D01*
X11454681Y-12802095D01*
X11464205Y-12840190D01*
X11464205Y-12868762D01*
X11454681Y-12906857D01*
X11445157Y-12925905D01*
X11426109Y-12944952D01*
X11397538Y-12954476D01*
X11349919Y-12954476D01*
X11549919Y-12954476D02*
X11549919Y-12821143D01*
X11549919Y-12859238D02*
X11559443Y-12840190D01*
X11568967Y-12830667D01*
X11588014Y-12821143D01*
X11607062Y-12821143D01*
X11673728Y-12954476D02*
X11673728Y-12821143D01*
X11673728Y-12754476D02*
X11664205Y-12764000D01*
X11673728Y-12773524D01*
X11683252Y-12764000D01*
X11673728Y-12754476D01*
X11673728Y-12773524D01*
X11797538Y-12954476D02*
X11778490Y-12944952D01*
X11768967Y-12925905D01*
X11768967Y-12754476D01*
X11902300Y-12954476D02*
X11883252Y-12944952D01*
X11873728Y-12925905D01*
X11873728Y-12754476D01*
X12130871Y-12954476D02*
X12130871Y-12754476D01*
X12197538Y-12897333D01*
X12264205Y-12754476D01*
X12264205Y-12954476D01*
X12445157Y-12954476D02*
X12445157Y-12849714D01*
X12435633Y-12830667D01*
X12416586Y-12821143D01*
X12378490Y-12821143D01*
X12359443Y-12830667D01*
X12445157Y-12944952D02*
X12426109Y-12954476D01*
X12378490Y-12954476D01*
X12359443Y-12944952D01*
X12349919Y-12925905D01*
X12349919Y-12906857D01*
X12359443Y-12887809D01*
X12378490Y-12878286D01*
X12426109Y-12878286D01*
X12445157Y-12868762D01*
X12540395Y-12821143D02*
X12540395Y-13021143D01*
X12540395Y-12830667D02*
X12559443Y-12821143D01*
X12597538Y-12821143D01*
X12616586Y-12830667D01*
X12626109Y-12840190D01*
X12635633Y-12859238D01*
X12635633Y-12916381D01*
X12626109Y-12935428D01*
X12616586Y-12944952D01*
X12597538Y-12954476D01*
X12559443Y-12954476D01*
X12540395Y-12944952D01*
X12721348Y-12935428D02*
X12730871Y-12944952D01*
X12721348Y-12954476D01*
X12711824Y-12944952D01*
X12721348Y-12935428D01*
X12721348Y-12954476D01*
X12721348Y-12830667D02*
X12730871Y-12840190D01*
X12721348Y-12849714D01*
X12711824Y-12840190D01*
X12721348Y-12830667D01*
X12721348Y-12849714D01*
D12*
X11052300Y-13264000D02*
X11092300Y-13304000D01*
X11092300Y-13264000D02*
X11052300Y-13304000D01*
D11*
X11388014Y-13174476D02*
X11407062Y-13174476D01*
X11426109Y-13184000D01*
X11435633Y-13193524D01*
X11445157Y-13212571D01*
X11454681Y-13250667D01*
X11454681Y-13298286D01*
X11445157Y-13336381D01*
X11435633Y-13355428D01*
X11426109Y-13364952D01*
X11407062Y-13374476D01*
X11388014Y-13374476D01*
X11368967Y-13364952D01*
X11359443Y-13355428D01*
X11349919Y-13336381D01*
X11340395Y-13298286D01*
X11340395Y-13250667D01*
X11349919Y-13212571D01*
X11359443Y-13193524D01*
X11368967Y-13184000D01*
X11388014Y-13174476D01*
X11540395Y-13355428D02*
X11549919Y-13364952D01*
X11540395Y-13374476D01*
X11530871Y-13364952D01*
X11540395Y-13355428D01*
X11540395Y-13374476D01*
X11721348Y-13241143D02*
X11721348Y-13374476D01*
X11673728Y-13164952D02*
X11626109Y-13307809D01*
X11749919Y-13307809D01*
X11864205Y-13174476D02*
X11883252Y-13174476D01*
X11902300Y-13184000D01*
X11911824Y-13193524D01*
X11921348Y-13212571D01*
X11930871Y-13250667D01*
X11930871Y-13298286D01*
X11921348Y-13336381D01*
X11911824Y-13355428D01*
X11902300Y-13364952D01*
X11883252Y-13374476D01*
X11864205Y-13374476D01*
X11845157Y-13364952D01*
X11835633Y-13355428D01*
X11826109Y-13336381D01*
X11816586Y-13298286D01*
X11816586Y-13250667D01*
X11826109Y-13212571D01*
X11835633Y-13193524D01*
X11845157Y-13184000D01*
X11864205Y-13174476D01*
X12054681Y-13174476D02*
X12073728Y-13174476D01*
X12092776Y-13184000D01*
X12102300Y-13193524D01*
X12111824Y-13212571D01*
X12121348Y-13250667D01*
X12121348Y-13298286D01*
X12111824Y-13336381D01*
X12102300Y-13355428D01*
X12092776Y-13364952D01*
X12073728Y-13374476D01*
X12054681Y-13374476D01*
X12035633Y-13364952D01*
X12026109Y-13355428D01*
X12016586Y-13336381D01*
X12007062Y-13298286D01*
X12007062Y-13250667D01*
X12016586Y-13212571D01*
X12026109Y-13193524D01*
X12035633Y-13184000D01*
X12054681Y-13174476D01*
X12207062Y-13374476D02*
X12207062Y-13241143D01*
X12207062Y-13260190D02*
X12216586Y-13250667D01*
X12235633Y-13241143D01*
X12264205Y-13241143D01*
X12283252Y-13250667D01*
X12292776Y-13269714D01*
X12292776Y-13374476D01*
X12292776Y-13269714D02*
X12302300Y-13250667D01*
X12321348Y-13241143D01*
X12349919Y-13241143D01*
X12368967Y-13250667D01*
X12378490Y-13269714D01*
X12378490Y-13374476D01*
X12473728Y-13374476D02*
X12473728Y-13241143D01*
X12473728Y-13260190D02*
X12483252Y-13250667D01*
X12502300Y-13241143D01*
X12530871Y-13241143D01*
X12549919Y-13250667D01*
X12559443Y-13269714D01*
X12559443Y-13374476D01*
X12559443Y-13269714D02*
X12568967Y-13250667D01*
X12588014Y-13241143D01*
X12616586Y-13241143D01*
X12635633Y-13250667D01*
X12645157Y-13269714D01*
X12645157Y-13374476D01*
X13035633Y-13164952D02*
X12864205Y-13422095D01*
X13292776Y-13174476D02*
X13311824Y-13174476D01*
X13330871Y-13184000D01*
X13340395Y-13193524D01*
X13349919Y-13212571D01*
X13359443Y-13250667D01*
X13359443Y-13298286D01*
X13349919Y-13336381D01*
X13340395Y-13355428D01*
X13330871Y-13364952D01*
X13311824Y-13374476D01*
X13292776Y-13374476D01*
X13273728Y-13364952D01*
X13264205Y-13355428D01*
X13254681Y-13336381D01*
X13245157Y-13298286D01*
X13245157Y-13250667D01*
X13254681Y-13212571D01*
X13264205Y-13193524D01*
X13273728Y-13184000D01*
X13292776Y-13174476D01*
X13445157Y-13355428D02*
X13454681Y-13364952D01*
X13445157Y-13374476D01*
X13435633Y-13364952D01*
X13445157Y-13355428D01*
X13445157Y-13374476D01*
X13578490Y-13174476D02*
X13597538Y-13174476D01*
X13616586Y-13184000D01*
X13626109Y-13193524D01*
X13635633Y-13212571D01*
X13645157Y-13250667D01*
X13645157Y-13298286D01*
X13635633Y-13336381D01*
X13626109Y-13355428D01*
X13616586Y-13364952D01*
X13597538Y-13374476D01*
X13578490Y-13374476D01*
X13559443Y-13364952D01*
X13549919Y-13355428D01*
X13540395Y-13336381D01*
X13530871Y-13298286D01*
X13530871Y-13250667D01*
X13540395Y-13212571D01*
X13549919Y-13193524D01*
X13559443Y-13184000D01*
X13578490Y-13174476D01*
X13835633Y-13374476D02*
X13721348Y-13374476D01*
X13778490Y-13374476D02*
X13778490Y-13174476D01*
X13759443Y-13203048D01*
X13740395Y-13222095D01*
X13721348Y-13231619D01*
X14016586Y-13174476D02*
X13921348Y-13174476D01*
X13911824Y-13269714D01*
X13921348Y-13260190D01*
X13940395Y-13250667D01*
X13988014Y-13250667D01*
X14007062Y-13260190D01*
X14016586Y-13269714D01*
X14026109Y-13288762D01*
X14026109Y-13336381D01*
X14016586Y-13355428D01*
X14007062Y-13364952D01*
X13988014Y-13374476D01*
X13940395Y-13374476D01*
X13921348Y-13364952D01*
X13911824Y-13355428D01*
X14092776Y-13174476D02*
X14226109Y-13174476D01*
X14140395Y-13374476D01*
X14292776Y-13174476D02*
X14292776Y-13212571D01*
X14368967Y-13174476D02*
X14368967Y-13212571D01*
X14664205Y-13450667D02*
X14654681Y-13441143D01*
X14635633Y-13412571D01*
X14626109Y-13393524D01*
X14616586Y-13364952D01*
X14607062Y-13317333D01*
X14607062Y-13279238D01*
X14616586Y-13231619D01*
X14626109Y-13203048D01*
X14635633Y-13184000D01*
X14654681Y-13155428D01*
X14664205Y-13145905D01*
X14835633Y-13174476D02*
X14740395Y-13174476D01*
X14730871Y-13269714D01*
X14740395Y-13260190D01*
X14759443Y-13250667D01*
X14807062Y-13250667D01*
X14826109Y-13260190D01*
X14835633Y-13269714D01*
X14845157Y-13288762D01*
X14845157Y-13336381D01*
X14835633Y-13355428D01*
X14826109Y-13364952D01*
X14807062Y-13374476D01*
X14759443Y-13374476D01*
X14740395Y-13364952D01*
X14730871Y-13355428D01*
X15083252Y-13374476D02*
X15083252Y-13174476D01*
X15168967Y-13374476D02*
X15168967Y-13269714D01*
X15159443Y-13250667D01*
X15140395Y-13241143D01*
X15111824Y-13241143D01*
X15092776Y-13250667D01*
X15083252Y-13260190D01*
X15292776Y-13374476D02*
X15273728Y-13364952D01*
X15264205Y-13355428D01*
X15254681Y-13336381D01*
X15254681Y-13279238D01*
X15264205Y-13260190D01*
X15273728Y-13250667D01*
X15292776Y-13241143D01*
X15321348Y-13241143D01*
X15340395Y-13250667D01*
X15349919Y-13260190D01*
X15359443Y-13279238D01*
X15359443Y-13336381D01*
X15349919Y-13355428D01*
X15340395Y-13364952D01*
X15321348Y-13374476D01*
X15292776Y-13374476D01*
X15473728Y-13374476D02*
X15454681Y-13364952D01*
X15445157Y-13345905D01*
X15445157Y-13174476D01*
X15626109Y-13364952D02*
X15607062Y-13374476D01*
X15568967Y-13374476D01*
X15549919Y-13364952D01*
X15540395Y-13345905D01*
X15540395Y-13269714D01*
X15549919Y-13250667D01*
X15568967Y-13241143D01*
X15607062Y-13241143D01*
X15626109Y-13250667D01*
X15635633Y-13269714D01*
X15635633Y-13288762D01*
X15540395Y-13307809D01*
X15711824Y-13364952D02*
X15730871Y-13374476D01*
X15768967Y-13374476D01*
X15788014Y-13364952D01*
X15797538Y-13345905D01*
X15797538Y-13336381D01*
X15788014Y-13317333D01*
X15768967Y-13307809D01*
X15740395Y-13307809D01*
X15721348Y-13298286D01*
X15711824Y-13279238D01*
X15711824Y-13269714D01*
X15721348Y-13250667D01*
X15740395Y-13241143D01*
X15768967Y-13241143D01*
X15788014Y-13250667D01*
X15864205Y-13450667D02*
X15873728Y-13441143D01*
X15892776Y-13412571D01*
X15902300Y-13393524D01*
X15911824Y-13364952D01*
X15921348Y-13317333D01*
X15921348Y-13279238D01*
X15911824Y-13231619D01*
X15902300Y-13203048D01*
X15892776Y-13184000D01*
X15873728Y-13155428D01*
X15864205Y-13145905D01*
D13*
X11092300Y-13548000D02*
G75*
G03*
X11092300Y-13548000I-40000J0D01*
G01*
D11*
X11388014Y-13438476D02*
X11407062Y-13438476D01*
X11426109Y-13448000D01*
X11435633Y-13457524D01*
X11445157Y-13476571D01*
X11454681Y-13514667D01*
X11454681Y-13562286D01*
X11445157Y-13600381D01*
X11435633Y-13619428D01*
X11426109Y-13628952D01*
X11407062Y-13638476D01*
X11388014Y-13638476D01*
X11368967Y-13628952D01*
X11359443Y-13619428D01*
X11349919Y-13600381D01*
X11340395Y-13562286D01*
X11340395Y-13514667D01*
X11349919Y-13476571D01*
X11359443Y-13457524D01*
X11368967Y-13448000D01*
X11388014Y-13438476D01*
X11540395Y-13619428D02*
X11549919Y-13628952D01*
X11540395Y-13638476D01*
X11530871Y-13628952D01*
X11540395Y-13619428D01*
X11540395Y-13638476D01*
X11664205Y-13524190D02*
X11645157Y-13514667D01*
X11635633Y-13505143D01*
X11626109Y-13486095D01*
X11626109Y-13476571D01*
X11635633Y-13457524D01*
X11645157Y-13448000D01*
X11664205Y-13438476D01*
X11702300Y-13438476D01*
X11721348Y-13448000D01*
X11730871Y-13457524D01*
X11740395Y-13476571D01*
X11740395Y-13486095D01*
X11730871Y-13505143D01*
X11721348Y-13514667D01*
X11702300Y-13524190D01*
X11664205Y-13524190D01*
X11645157Y-13533714D01*
X11635633Y-13543238D01*
X11626109Y-13562286D01*
X11626109Y-13600381D01*
X11635633Y-13619428D01*
X11645157Y-13628952D01*
X11664205Y-13638476D01*
X11702300Y-13638476D01*
X11721348Y-13628952D01*
X11730871Y-13619428D01*
X11740395Y-13600381D01*
X11740395Y-13562286D01*
X11730871Y-13543238D01*
X11721348Y-13533714D01*
X11702300Y-13524190D01*
X11864205Y-13438476D02*
X11883252Y-13438476D01*
X11902300Y-13448000D01*
X11911824Y-13457524D01*
X11921348Y-13476571D01*
X11930871Y-13514667D01*
X11930871Y-13562286D01*
X11921348Y-13600381D01*
X11911824Y-13619428D01*
X11902300Y-13628952D01*
X11883252Y-13638476D01*
X11864205Y-13638476D01*
X11845157Y-13628952D01*
X11835633Y-13619428D01*
X11826109Y-13600381D01*
X11816586Y-13562286D01*
X11816586Y-13514667D01*
X11826109Y-13476571D01*
X11835633Y-13457524D01*
X11845157Y-13448000D01*
X11864205Y-13438476D01*
X12054681Y-13438476D02*
X12073728Y-13438476D01*
X12092776Y-13448000D01*
X12102300Y-13457524D01*
X12111824Y-13476571D01*
X12121348Y-13514667D01*
X12121348Y-13562286D01*
X12111824Y-13600381D01*
X12102300Y-13619428D01*
X12092776Y-13628952D01*
X12073728Y-13638476D01*
X12054681Y-13638476D01*
X12035633Y-13628952D01*
X12026109Y-13619428D01*
X12016586Y-13600381D01*
X12007062Y-13562286D01*
X12007062Y-13514667D01*
X12016586Y-13476571D01*
X12026109Y-13457524D01*
X12035633Y-13448000D01*
X12054681Y-13438476D01*
X12207062Y-13638476D02*
X12207062Y-13505143D01*
X12207062Y-13524190D02*
X12216586Y-13514667D01*
X12235633Y-13505143D01*
X12264205Y-13505143D01*
X12283252Y-13514667D01*
X12292776Y-13533714D01*
X12292776Y-13638476D01*
X12292776Y-13533714D02*
X12302300Y-13514667D01*
X12321348Y-13505143D01*
X12349919Y-13505143D01*
X12368967Y-13514667D01*
X12378490Y-13533714D01*
X12378490Y-13638476D01*
X12473728Y-13638476D02*
X12473728Y-13505143D01*
X12473728Y-13524190D02*
X12483252Y-13514667D01*
X12502300Y-13505143D01*
X12530871Y-13505143D01*
X12549919Y-13514667D01*
X12559443Y-13533714D01*
X12559443Y-13638476D01*
X12559443Y-13533714D02*
X12568967Y-13514667D01*
X12588014Y-13505143D01*
X12616586Y-13505143D01*
X12635633Y-13514667D01*
X12645157Y-13533714D01*
X12645157Y-13638476D01*
X13035633Y-13428952D02*
X12864205Y-13686095D01*
X13292776Y-13438476D02*
X13311824Y-13438476D01*
X13330871Y-13448000D01*
X13340395Y-13457524D01*
X13349919Y-13476571D01*
X13359443Y-13514667D01*
X13359443Y-13562286D01*
X13349919Y-13600381D01*
X13340395Y-13619428D01*
X13330871Y-13628952D01*
X13311824Y-13638476D01*
X13292776Y-13638476D01*
X13273728Y-13628952D01*
X13264205Y-13619428D01*
X13254681Y-13600381D01*
X13245157Y-13562286D01*
X13245157Y-13514667D01*
X13254681Y-13476571D01*
X13264205Y-13457524D01*
X13273728Y-13448000D01*
X13292776Y-13438476D01*
X13445157Y-13619428D02*
X13454681Y-13628952D01*
X13445157Y-13638476D01*
X13435633Y-13628952D01*
X13445157Y-13619428D01*
X13445157Y-13638476D01*
X13578490Y-13438476D02*
X13597538Y-13438476D01*
X13616586Y-13448000D01*
X13626109Y-13457524D01*
X13635633Y-13476571D01*
X13645157Y-13514667D01*
X13645157Y-13562286D01*
X13635633Y-13600381D01*
X13626109Y-13619428D01*
X13616586Y-13628952D01*
X13597538Y-13638476D01*
X13578490Y-13638476D01*
X13559443Y-13628952D01*
X13549919Y-13619428D01*
X13540395Y-13600381D01*
X13530871Y-13562286D01*
X13530871Y-13514667D01*
X13540395Y-13476571D01*
X13549919Y-13457524D01*
X13559443Y-13448000D01*
X13578490Y-13438476D01*
X13711824Y-13438476D02*
X13835633Y-13438476D01*
X13768967Y-13514667D01*
X13797538Y-13514667D01*
X13816586Y-13524190D01*
X13826109Y-13533714D01*
X13835633Y-13552762D01*
X13835633Y-13600381D01*
X13826109Y-13619428D01*
X13816586Y-13628952D01*
X13797538Y-13638476D01*
X13740395Y-13638476D01*
X13721348Y-13628952D01*
X13711824Y-13619428D01*
X14026109Y-13638476D02*
X13911824Y-13638476D01*
X13968967Y-13638476D02*
X13968967Y-13438476D01*
X13949919Y-13467048D01*
X13930871Y-13486095D01*
X13911824Y-13495619D01*
X14207062Y-13438476D02*
X14111824Y-13438476D01*
X14102300Y-13533714D01*
X14111824Y-13524190D01*
X14130871Y-13514667D01*
X14178490Y-13514667D01*
X14197538Y-13524190D01*
X14207062Y-13533714D01*
X14216586Y-13552762D01*
X14216586Y-13600381D01*
X14207062Y-13619428D01*
X14197538Y-13628952D01*
X14178490Y-13638476D01*
X14130871Y-13638476D01*
X14111824Y-13628952D01*
X14102300Y-13619428D01*
X14292776Y-13438476D02*
X14292776Y-13476571D01*
X14368967Y-13438476D02*
X14368967Y-13476571D01*
X14664205Y-13714667D02*
X14654681Y-13705143D01*
X14635633Y-13676571D01*
X14626109Y-13657524D01*
X14616586Y-13628952D01*
X14607062Y-13581333D01*
X14607062Y-13543238D01*
X14616586Y-13495619D01*
X14626109Y-13467048D01*
X14635633Y-13448000D01*
X14654681Y-13419428D01*
X14664205Y-13409905D01*
X14730871Y-13457524D02*
X14740395Y-13448000D01*
X14759443Y-13438476D01*
X14807062Y-13438476D01*
X14826109Y-13448000D01*
X14835633Y-13457524D01*
X14845157Y-13476571D01*
X14845157Y-13495619D01*
X14835633Y-13524190D01*
X14721348Y-13638476D01*
X14845157Y-13638476D01*
X15016586Y-13505143D02*
X15016586Y-13638476D01*
X14968967Y-13428952D02*
X14921348Y-13571809D01*
X15045157Y-13571809D01*
X15273728Y-13638476D02*
X15273728Y-13438476D01*
X15359443Y-13638476D02*
X15359443Y-13533714D01*
X15349919Y-13514667D01*
X15330871Y-13505143D01*
X15302300Y-13505143D01*
X15283252Y-13514667D01*
X15273728Y-13524190D01*
X15483252Y-13638476D02*
X15464205Y-13628952D01*
X15454681Y-13619428D01*
X15445157Y-13600381D01*
X15445157Y-13543238D01*
X15454681Y-13524190D01*
X15464205Y-13514667D01*
X15483252Y-13505143D01*
X15511824Y-13505143D01*
X15530871Y-13514667D01*
X15540395Y-13524190D01*
X15549919Y-13543238D01*
X15549919Y-13600381D01*
X15540395Y-13619428D01*
X15530871Y-13628952D01*
X15511824Y-13638476D01*
X15483252Y-13638476D01*
X15664205Y-13638476D02*
X15645157Y-13628952D01*
X15635633Y-13609905D01*
X15635633Y-13438476D01*
X15816586Y-13628952D02*
X15797538Y-13638476D01*
X15759443Y-13638476D01*
X15740395Y-13628952D01*
X15730871Y-13609905D01*
X15730871Y-13533714D01*
X15740395Y-13514667D01*
X15759443Y-13505143D01*
X15797538Y-13505143D01*
X15816586Y-13514667D01*
X15826109Y-13533714D01*
X15826109Y-13552762D01*
X15730871Y-13571809D01*
X15902300Y-13628952D02*
X15921348Y-13638476D01*
X15959443Y-13638476D01*
X15978490Y-13628952D01*
X15988014Y-13609905D01*
X15988014Y-13600381D01*
X15978490Y-13581333D01*
X15959443Y-13571809D01*
X15930871Y-13571809D01*
X15911824Y-13562286D01*
X15902300Y-13543238D01*
X15902300Y-13533714D01*
X15911824Y-13514667D01*
X15930871Y-13505143D01*
X15959443Y-13505143D01*
X15978490Y-13514667D01*
X16054681Y-13714667D02*
X16064205Y-13705143D01*
X16083252Y-13676571D01*
X16092776Y-13657524D01*
X16102300Y-13628952D01*
X16111824Y-13581333D01*
X16111824Y-13543238D01*
X16102300Y-13495619D01*
X16092776Y-13467048D01*
X16083252Y-13448000D01*
X16064205Y-13419428D01*
X16054681Y-13409905D01*
D14*
X11042300Y-13762000D02*
X11042300Y-13862000D01*
X10992300Y-13812000D02*
X11092300Y-13812000D01*
D11*
X11454681Y-13902476D02*
X11340395Y-13902476D01*
X11397538Y-13902476D02*
X11397538Y-13702476D01*
X11378490Y-13731048D01*
X11359443Y-13750095D01*
X11340395Y-13759619D01*
X11540395Y-13883428D02*
X11549919Y-13892952D01*
X11540395Y-13902476D01*
X11530871Y-13892952D01*
X11540395Y-13883428D01*
X11540395Y-13902476D01*
X11673728Y-13702476D02*
X11692776Y-13702476D01*
X11711824Y-13712000D01*
X11721348Y-13721524D01*
X11730871Y-13740571D01*
X11740395Y-13778667D01*
X11740395Y-13826286D01*
X11730871Y-13864381D01*
X11721348Y-13883428D01*
X11711824Y-13892952D01*
X11692776Y-13902476D01*
X11673728Y-13902476D01*
X11654681Y-13892952D01*
X11645157Y-13883428D01*
X11635633Y-13864381D01*
X11626109Y-13826286D01*
X11626109Y-13778667D01*
X11635633Y-13740571D01*
X11645157Y-13721524D01*
X11654681Y-13712000D01*
X11673728Y-13702476D01*
X11864205Y-13702476D02*
X11883252Y-13702476D01*
X11902300Y-13712000D01*
X11911824Y-13721524D01*
X11921348Y-13740571D01*
X11930871Y-13778667D01*
X11930871Y-13826286D01*
X11921348Y-13864381D01*
X11911824Y-13883428D01*
X11902300Y-13892952D01*
X11883252Y-13902476D01*
X11864205Y-13902476D01*
X11845157Y-13892952D01*
X11835633Y-13883428D01*
X11826109Y-13864381D01*
X11816586Y-13826286D01*
X11816586Y-13778667D01*
X11826109Y-13740571D01*
X11835633Y-13721524D01*
X11845157Y-13712000D01*
X11864205Y-13702476D01*
X12054681Y-13702476D02*
X12073728Y-13702476D01*
X12092776Y-13712000D01*
X12102300Y-13721524D01*
X12111824Y-13740571D01*
X12121348Y-13778667D01*
X12121348Y-13826286D01*
X12111824Y-13864381D01*
X12102300Y-13883428D01*
X12092776Y-13892952D01*
X12073728Y-13902476D01*
X12054681Y-13902476D01*
X12035633Y-13892952D01*
X12026109Y-13883428D01*
X12016586Y-13864381D01*
X12007062Y-13826286D01*
X12007062Y-13778667D01*
X12016586Y-13740571D01*
X12026109Y-13721524D01*
X12035633Y-13712000D01*
X12054681Y-13702476D01*
X12207062Y-13902476D02*
X12207062Y-13769143D01*
X12207062Y-13788190D02*
X12216586Y-13778667D01*
X12235633Y-13769143D01*
X12264205Y-13769143D01*
X12283252Y-13778667D01*
X12292776Y-13797714D01*
X12292776Y-13902476D01*
X12292776Y-13797714D02*
X12302300Y-13778667D01*
X12321348Y-13769143D01*
X12349919Y-13769143D01*
X12368967Y-13778667D01*
X12378490Y-13797714D01*
X12378490Y-13902476D01*
X12473728Y-13902476D02*
X12473728Y-13769143D01*
X12473728Y-13788190D02*
X12483252Y-13778667D01*
X12502300Y-13769143D01*
X12530871Y-13769143D01*
X12549919Y-13778667D01*
X12559443Y-13797714D01*
X12559443Y-13902476D01*
X12559443Y-13797714D02*
X12568967Y-13778667D01*
X12588014Y-13769143D01*
X12616586Y-13769143D01*
X12635633Y-13778667D01*
X12645157Y-13797714D01*
X12645157Y-13902476D01*
X13035633Y-13692952D02*
X12864205Y-13950095D01*
X13292776Y-13702476D02*
X13311824Y-13702476D01*
X13330871Y-13712000D01*
X13340395Y-13721524D01*
X13349919Y-13740571D01*
X13359443Y-13778667D01*
X13359443Y-13826286D01*
X13349919Y-13864381D01*
X13340395Y-13883428D01*
X13330871Y-13892952D01*
X13311824Y-13902476D01*
X13292776Y-13902476D01*
X13273728Y-13892952D01*
X13264205Y-13883428D01*
X13254681Y-13864381D01*
X13245157Y-13826286D01*
X13245157Y-13778667D01*
X13254681Y-13740571D01*
X13264205Y-13721524D01*
X13273728Y-13712000D01*
X13292776Y-13702476D01*
X13445157Y-13883428D02*
X13454681Y-13892952D01*
X13445157Y-13902476D01*
X13435633Y-13892952D01*
X13445157Y-13883428D01*
X13445157Y-13902476D01*
X13578490Y-13702476D02*
X13597538Y-13702476D01*
X13616586Y-13712000D01*
X13626109Y-13721524D01*
X13635633Y-13740571D01*
X13645157Y-13778667D01*
X13645157Y-13826286D01*
X13635633Y-13864381D01*
X13626109Y-13883428D01*
X13616586Y-13892952D01*
X13597538Y-13902476D01*
X13578490Y-13902476D01*
X13559443Y-13892952D01*
X13549919Y-13883428D01*
X13540395Y-13864381D01*
X13530871Y-13826286D01*
X13530871Y-13778667D01*
X13540395Y-13740571D01*
X13549919Y-13721524D01*
X13559443Y-13712000D01*
X13578490Y-13702476D01*
X13711824Y-13702476D02*
X13835633Y-13702476D01*
X13768967Y-13778667D01*
X13797538Y-13778667D01*
X13816586Y-13788190D01*
X13826109Y-13797714D01*
X13835633Y-13816762D01*
X13835633Y-13864381D01*
X13826109Y-13883428D01*
X13816586Y-13892952D01*
X13797538Y-13902476D01*
X13740395Y-13902476D01*
X13721348Y-13892952D01*
X13711824Y-13883428D01*
X13930871Y-13902476D02*
X13968967Y-13902476D01*
X13988014Y-13892952D01*
X13997538Y-13883428D01*
X14016586Y-13854857D01*
X14026109Y-13816762D01*
X14026109Y-13740571D01*
X14016586Y-13721524D01*
X14007062Y-13712000D01*
X13988014Y-13702476D01*
X13949919Y-13702476D01*
X13930871Y-13712000D01*
X13921348Y-13721524D01*
X13911824Y-13740571D01*
X13911824Y-13788190D01*
X13921348Y-13807238D01*
X13930871Y-13816762D01*
X13949919Y-13826286D01*
X13988014Y-13826286D01*
X14007062Y-13816762D01*
X14016586Y-13807238D01*
X14026109Y-13788190D01*
X14197538Y-13769143D02*
X14197538Y-13902476D01*
X14149919Y-13692952D02*
X14102300Y-13835809D01*
X14226109Y-13835809D01*
X14292776Y-13702476D02*
X14292776Y-13740571D01*
X14368967Y-13702476D02*
X14368967Y-13740571D01*
X14664205Y-13978667D02*
X14654681Y-13969143D01*
X14635633Y-13940571D01*
X14626109Y-13921524D01*
X14616586Y-13892952D01*
X14607062Y-13845333D01*
X14607062Y-13807238D01*
X14616586Y-13759619D01*
X14626109Y-13731048D01*
X14635633Y-13712000D01*
X14654681Y-13683428D01*
X14664205Y-13673905D01*
X14730871Y-13721524D02*
X14740395Y-13712000D01*
X14759443Y-13702476D01*
X14807062Y-13702476D01*
X14826109Y-13712000D01*
X14835633Y-13721524D01*
X14845157Y-13740571D01*
X14845157Y-13759619D01*
X14835633Y-13788190D01*
X14721348Y-13902476D01*
X14845157Y-13902476D01*
X14968967Y-13702476D02*
X14988014Y-13702476D01*
X15007062Y-13712000D01*
X15016586Y-13721524D01*
X15026109Y-13740571D01*
X15035633Y-13778667D01*
X15035633Y-13826286D01*
X15026109Y-13864381D01*
X15016586Y-13883428D01*
X15007062Y-13892952D01*
X14988014Y-13902476D01*
X14968967Y-13902476D01*
X14949919Y-13892952D01*
X14940395Y-13883428D01*
X14930871Y-13864381D01*
X14921348Y-13826286D01*
X14921348Y-13778667D01*
X14930871Y-13740571D01*
X14940395Y-13721524D01*
X14949919Y-13712000D01*
X14968967Y-13702476D01*
X15273728Y-13902476D02*
X15273728Y-13702476D01*
X15359443Y-13902476D02*
X15359443Y-13797714D01*
X15349919Y-13778667D01*
X15330871Y-13769143D01*
X15302300Y-13769143D01*
X15283252Y-13778667D01*
X15273728Y-13788190D01*
X15483252Y-13902476D02*
X15464205Y-13892952D01*
X15454681Y-13883428D01*
X15445157Y-13864381D01*
X15445157Y-13807238D01*
X15454681Y-13788190D01*
X15464205Y-13778667D01*
X15483252Y-13769143D01*
X15511824Y-13769143D01*
X15530871Y-13778667D01*
X15540395Y-13788190D01*
X15549919Y-13807238D01*
X15549919Y-13864381D01*
X15540395Y-13883428D01*
X15530871Y-13892952D01*
X15511824Y-13902476D01*
X15483252Y-13902476D01*
X15664205Y-13902476D02*
X15645157Y-13892952D01*
X15635633Y-13873905D01*
X15635633Y-13702476D01*
X15816586Y-13892952D02*
X15797538Y-13902476D01*
X15759443Y-13902476D01*
X15740395Y-13892952D01*
X15730871Y-13873905D01*
X15730871Y-13797714D01*
X15740395Y-13778667D01*
X15759443Y-13769143D01*
X15797538Y-13769143D01*
X15816586Y-13778667D01*
X15826109Y-13797714D01*
X15826109Y-13816762D01*
X15730871Y-13835809D01*
X15902300Y-13892952D02*
X15921348Y-13902476D01*
X15959443Y-13902476D01*
X15978490Y-13892952D01*
X15988014Y-13873905D01*
X15988014Y-13864381D01*
X15978490Y-13845333D01*
X15959443Y-13835809D01*
X15930871Y-13835809D01*
X15911824Y-13826286D01*
X15902300Y-13807238D01*
X15902300Y-13797714D01*
X15911824Y-13778667D01*
X15930871Y-13769143D01*
X15959443Y-13769143D01*
X15978490Y-13778667D01*
X16054681Y-13978667D02*
X16064205Y-13969143D01*
X16083252Y-13940571D01*
X16092776Y-13921524D01*
X16102300Y-13892952D01*
X16111824Y-13845333D01*
X16111824Y-13807238D01*
X16102300Y-13759619D01*
X16092776Y-13731048D01*
X16083252Y-13712000D01*
X16064205Y-13683428D01*
X16054681Y-13673905D01*
D15*
X11077421Y-14111921D02*
X11077421Y-14040079D01*
X11005579Y-14040079D01*
X11005579Y-14111921D01*
X11077421Y-14111921D01*
D11*
X11454681Y-14166476D02*
X11340395Y-14166476D01*
X11397538Y-14166476D02*
X11397538Y-13966476D01*
X11378490Y-13995048D01*
X11359443Y-14014095D01*
X11340395Y-14023619D01*
X11540395Y-14147428D02*
X11549919Y-14156952D01*
X11540395Y-14166476D01*
X11530871Y-14156952D01*
X11540395Y-14147428D01*
X11540395Y-14166476D01*
X11673728Y-13966476D02*
X11692776Y-13966476D01*
X11711824Y-13976000D01*
X11721348Y-13985524D01*
X11730871Y-14004571D01*
X11740395Y-14042667D01*
X11740395Y-14090286D01*
X11730871Y-14128381D01*
X11721348Y-14147428D01*
X11711824Y-14156952D01*
X11692776Y-14166476D01*
X11673728Y-14166476D01*
X11654681Y-14156952D01*
X11645157Y-14147428D01*
X11635633Y-14128381D01*
X11626109Y-14090286D01*
X11626109Y-14042667D01*
X11635633Y-14004571D01*
X11645157Y-13985524D01*
X11654681Y-13976000D01*
X11673728Y-13966476D01*
X11930871Y-14166476D02*
X11816586Y-14166476D01*
X11873728Y-14166476D02*
X11873728Y-13966476D01*
X11854681Y-13995048D01*
X11835633Y-14014095D01*
X11816586Y-14023619D01*
X12102300Y-13966476D02*
X12064205Y-13966476D01*
X12045157Y-13976000D01*
X12035633Y-13985524D01*
X12016586Y-14014095D01*
X12007062Y-14052190D01*
X12007062Y-14128381D01*
X12016586Y-14147428D01*
X12026109Y-14156952D01*
X12045157Y-14166476D01*
X12083252Y-14166476D01*
X12102300Y-14156952D01*
X12111824Y-14147428D01*
X12121348Y-14128381D01*
X12121348Y-14080762D01*
X12111824Y-14061714D01*
X12102300Y-14052190D01*
X12083252Y-14042667D01*
X12045157Y-14042667D01*
X12026109Y-14052190D01*
X12016586Y-14061714D01*
X12007062Y-14080762D01*
X12207062Y-14166476D02*
X12207062Y-14033143D01*
X12207062Y-14052190D02*
X12216586Y-14042667D01*
X12235633Y-14033143D01*
X12264205Y-14033143D01*
X12283252Y-14042667D01*
X12292776Y-14061714D01*
X12292776Y-14166476D01*
X12292776Y-14061714D02*
X12302300Y-14042667D01*
X12321348Y-14033143D01*
X12349919Y-14033143D01*
X12368967Y-14042667D01*
X12378490Y-14061714D01*
X12378490Y-14166476D01*
X12473728Y-14166476D02*
X12473728Y-14033143D01*
X12473728Y-14052190D02*
X12483252Y-14042667D01*
X12502300Y-14033143D01*
X12530871Y-14033143D01*
X12549919Y-14042667D01*
X12559443Y-14061714D01*
X12559443Y-14166476D01*
X12559443Y-14061714D02*
X12568967Y-14042667D01*
X12588014Y-14033143D01*
X12616586Y-14033143D01*
X12635633Y-14042667D01*
X12645157Y-14061714D01*
X12645157Y-14166476D01*
X13035633Y-13956952D02*
X12864205Y-14214095D01*
X13292776Y-13966476D02*
X13311824Y-13966476D01*
X13330871Y-13976000D01*
X13340395Y-13985524D01*
X13349919Y-14004571D01*
X13359443Y-14042667D01*
X13359443Y-14090286D01*
X13349919Y-14128381D01*
X13340395Y-14147428D01*
X13330871Y-14156952D01*
X13311824Y-14166476D01*
X13292776Y-14166476D01*
X13273728Y-14156952D01*
X13264205Y-14147428D01*
X13254681Y-14128381D01*
X13245157Y-14090286D01*
X13245157Y-14042667D01*
X13254681Y-14004571D01*
X13264205Y-13985524D01*
X13273728Y-13976000D01*
X13292776Y-13966476D01*
X13445157Y-14147428D02*
X13454681Y-14156952D01*
X13445157Y-14166476D01*
X13435633Y-14156952D01*
X13445157Y-14147428D01*
X13445157Y-14166476D01*
X13578490Y-13966476D02*
X13597538Y-13966476D01*
X13616586Y-13976000D01*
X13626109Y-13985524D01*
X13635633Y-14004571D01*
X13645157Y-14042667D01*
X13645157Y-14090286D01*
X13635633Y-14128381D01*
X13626109Y-14147428D01*
X13616586Y-14156952D01*
X13597538Y-14166476D01*
X13578490Y-14166476D01*
X13559443Y-14156952D01*
X13549919Y-14147428D01*
X13540395Y-14128381D01*
X13530871Y-14090286D01*
X13530871Y-14042667D01*
X13540395Y-14004571D01*
X13549919Y-13985524D01*
X13559443Y-13976000D01*
X13578490Y-13966476D01*
X13816586Y-14033143D02*
X13816586Y-14166476D01*
X13768967Y-13956952D02*
X13721348Y-14099809D01*
X13845157Y-14099809D01*
X13959443Y-13966476D02*
X13978490Y-13966476D01*
X13997538Y-13976000D01*
X14007062Y-13985524D01*
X14016586Y-14004571D01*
X14026109Y-14042667D01*
X14026109Y-14090286D01*
X14016586Y-14128381D01*
X14007062Y-14147428D01*
X13997538Y-14156952D01*
X13978490Y-14166476D01*
X13959443Y-14166476D01*
X13940395Y-14156952D01*
X13930871Y-14147428D01*
X13921348Y-14128381D01*
X13911824Y-14090286D01*
X13911824Y-14042667D01*
X13921348Y-14004571D01*
X13930871Y-13985524D01*
X13940395Y-13976000D01*
X13959443Y-13966476D01*
X14149919Y-13966476D02*
X14168967Y-13966476D01*
X14188014Y-13976000D01*
X14197538Y-13985524D01*
X14207062Y-14004571D01*
X14216586Y-14042667D01*
X14216586Y-14090286D01*
X14207062Y-14128381D01*
X14197538Y-14147428D01*
X14188014Y-14156952D01*
X14168967Y-14166476D01*
X14149919Y-14166476D01*
X14130871Y-14156952D01*
X14121348Y-14147428D01*
X14111824Y-14128381D01*
X14102300Y-14090286D01*
X14102300Y-14042667D01*
X14111824Y-14004571D01*
X14121348Y-13985524D01*
X14130871Y-13976000D01*
X14149919Y-13966476D01*
X14292776Y-13966476D02*
X14292776Y-14004571D01*
X14368967Y-13966476D02*
X14368967Y-14004571D01*
X14664205Y-14242667D02*
X14654681Y-14233143D01*
X14635633Y-14204571D01*
X14626109Y-14185524D01*
X14616586Y-14156952D01*
X14607062Y-14109333D01*
X14607062Y-14071238D01*
X14616586Y-14023619D01*
X14626109Y-13995048D01*
X14635633Y-13976000D01*
X14654681Y-13947428D01*
X14664205Y-13937905D01*
X14721348Y-13966476D02*
X14845157Y-13966476D01*
X14778490Y-14042667D01*
X14807062Y-14042667D01*
X14826109Y-14052190D01*
X14835633Y-14061714D01*
X14845157Y-14080762D01*
X14845157Y-14128381D01*
X14835633Y-14147428D01*
X14826109Y-14156952D01*
X14807062Y-14166476D01*
X14749919Y-14166476D01*
X14730871Y-14156952D01*
X14721348Y-14147428D01*
X14921348Y-13985524D02*
X14930871Y-13976000D01*
X14949919Y-13966476D01*
X14997538Y-13966476D01*
X15016586Y-13976000D01*
X15026109Y-13985524D01*
X15035633Y-14004571D01*
X15035633Y-14023619D01*
X15026109Y-14052190D01*
X14911824Y-14166476D01*
X15035633Y-14166476D01*
X15273728Y-14166476D02*
X15273728Y-13966476D01*
X15359443Y-14166476D02*
X15359443Y-14061714D01*
X15349919Y-14042667D01*
X15330871Y-14033143D01*
X15302300Y-14033143D01*
X15283252Y-14042667D01*
X15273728Y-14052190D01*
X15483252Y-14166476D02*
X15464205Y-14156952D01*
X15454681Y-14147428D01*
X15445157Y-14128381D01*
X15445157Y-14071238D01*
X15454681Y-14052190D01*
X15464205Y-14042667D01*
X15483252Y-14033143D01*
X15511824Y-14033143D01*
X15530871Y-14042667D01*
X15540395Y-14052190D01*
X15549919Y-14071238D01*
X15549919Y-14128381D01*
X15540395Y-14147428D01*
X15530871Y-14156952D01*
X15511824Y-14166476D01*
X15483252Y-14166476D01*
X15664205Y-14166476D02*
X15645157Y-14156952D01*
X15635633Y-14137905D01*
X15635633Y-13966476D01*
X15816586Y-14156952D02*
X15797538Y-14166476D01*
X15759443Y-14166476D01*
X15740395Y-14156952D01*
X15730871Y-14137905D01*
X15730871Y-14061714D01*
X15740395Y-14042667D01*
X15759443Y-14033143D01*
X15797538Y-14033143D01*
X15816586Y-14042667D01*
X15826109Y-14061714D01*
X15826109Y-14080762D01*
X15730871Y-14099809D01*
X15902300Y-14156952D02*
X15921348Y-14166476D01*
X15959443Y-14166476D01*
X15978490Y-14156952D01*
X15988014Y-14137905D01*
X15988014Y-14128381D01*
X15978490Y-14109333D01*
X15959443Y-14099809D01*
X15930871Y-14099809D01*
X15911824Y-14090286D01*
X15902300Y-14071238D01*
X15902300Y-14061714D01*
X15911824Y-14042667D01*
X15930871Y-14033143D01*
X15959443Y-14033143D01*
X15978490Y-14042667D01*
X16054681Y-14242667D02*
X16064205Y-14233143D01*
X16083252Y-14204571D01*
X16092776Y-14185524D01*
X16102300Y-14156952D01*
X16111824Y-14109333D01*
X16111824Y-14071238D01*
X16102300Y-14023619D01*
X16092776Y-13995048D01*
X16083252Y-13976000D01*
X16064205Y-13947428D01*
X16054681Y-13937905D01*
X10992300Y-14440000D02*
X11092300Y-14340000D01*
X10992300Y-14240000D01*
X10892300Y-14340000D01*
X10992300Y-14440000D01*
X11330871Y-14230476D02*
X11454681Y-14230476D01*
X11388014Y-14306667D01*
X11416586Y-14306667D01*
X11435633Y-14316190D01*
X11445157Y-14325714D01*
X11454681Y-14344762D01*
X11454681Y-14392381D01*
X11445157Y-14411428D01*
X11435633Y-14420952D01*
X11416586Y-14430476D01*
X11359443Y-14430476D01*
X11340395Y-14420952D01*
X11330871Y-14411428D01*
X11540395Y-14411428D02*
X11549919Y-14420952D01*
X11540395Y-14430476D01*
X11530871Y-14420952D01*
X11540395Y-14411428D01*
X11540395Y-14430476D01*
X11673728Y-14230476D02*
X11692776Y-14230476D01*
X11711824Y-14240000D01*
X11721348Y-14249524D01*
X11730871Y-14268571D01*
X11740395Y-14306667D01*
X11740395Y-14354286D01*
X11730871Y-14392381D01*
X11721348Y-14411428D01*
X11711824Y-14420952D01*
X11692776Y-14430476D01*
X11673728Y-14430476D01*
X11654681Y-14420952D01*
X11645157Y-14411428D01*
X11635633Y-14392381D01*
X11626109Y-14354286D01*
X11626109Y-14306667D01*
X11635633Y-14268571D01*
X11645157Y-14249524D01*
X11654681Y-14240000D01*
X11673728Y-14230476D01*
X11911824Y-14297143D02*
X11911824Y-14430476D01*
X11864205Y-14220952D02*
X11816586Y-14363809D01*
X11940395Y-14363809D01*
X12045157Y-14316190D02*
X12026109Y-14306667D01*
X12016586Y-14297143D01*
X12007062Y-14278095D01*
X12007062Y-14268571D01*
X12016586Y-14249524D01*
X12026109Y-14240000D01*
X12045157Y-14230476D01*
X12083252Y-14230476D01*
X12102300Y-14240000D01*
X12111824Y-14249524D01*
X12121348Y-14268571D01*
X12121348Y-14278095D01*
X12111824Y-14297143D01*
X12102300Y-14306667D01*
X12083252Y-14316190D01*
X12045157Y-14316190D01*
X12026109Y-14325714D01*
X12016586Y-14335238D01*
X12007062Y-14354286D01*
X12007062Y-14392381D01*
X12016586Y-14411428D01*
X12026109Y-14420952D01*
X12045157Y-14430476D01*
X12083252Y-14430476D01*
X12102300Y-14420952D01*
X12111824Y-14411428D01*
X12121348Y-14392381D01*
X12121348Y-14354286D01*
X12111824Y-14335238D01*
X12102300Y-14325714D01*
X12083252Y-14316190D01*
X12207062Y-14430476D02*
X12207062Y-14297143D01*
X12207062Y-14316190D02*
X12216586Y-14306667D01*
X12235633Y-14297143D01*
X12264205Y-14297143D01*
X12283252Y-14306667D01*
X12292776Y-14325714D01*
X12292776Y-14430476D01*
X12292776Y-14325714D02*
X12302300Y-14306667D01*
X12321348Y-14297143D01*
X12349919Y-14297143D01*
X12368967Y-14306667D01*
X12378490Y-14325714D01*
X12378490Y-14430476D01*
X12473728Y-14430476D02*
X12473728Y-14297143D01*
X12473728Y-14316190D02*
X12483252Y-14306667D01*
X12502300Y-14297143D01*
X12530871Y-14297143D01*
X12549919Y-14306667D01*
X12559443Y-14325714D01*
X12559443Y-14430476D01*
X12559443Y-14325714D02*
X12568967Y-14306667D01*
X12588014Y-14297143D01*
X12616586Y-14297143D01*
X12635633Y-14306667D01*
X12645157Y-14325714D01*
X12645157Y-14430476D01*
X13035633Y-14220952D02*
X12864205Y-14478095D01*
X13292776Y-14230476D02*
X13311824Y-14230476D01*
X13330871Y-14240000D01*
X13340395Y-14249524D01*
X13349919Y-14268571D01*
X13359443Y-14306667D01*
X13359443Y-14354286D01*
X13349919Y-14392381D01*
X13340395Y-14411428D01*
X13330871Y-14420952D01*
X13311824Y-14430476D01*
X13292776Y-14430476D01*
X13273728Y-14420952D01*
X13264205Y-14411428D01*
X13254681Y-14392381D01*
X13245157Y-14354286D01*
X13245157Y-14306667D01*
X13254681Y-14268571D01*
X13264205Y-14249524D01*
X13273728Y-14240000D01*
X13292776Y-14230476D01*
X13445157Y-14411428D02*
X13454681Y-14420952D01*
X13445157Y-14430476D01*
X13435633Y-14420952D01*
X13445157Y-14411428D01*
X13445157Y-14430476D01*
X13645157Y-14430476D02*
X13530871Y-14430476D01*
X13588014Y-14430476D02*
X13588014Y-14230476D01*
X13568967Y-14259048D01*
X13549919Y-14278095D01*
X13530871Y-14287619D01*
X13721348Y-14249524D02*
X13730871Y-14240000D01*
X13749919Y-14230476D01*
X13797538Y-14230476D01*
X13816586Y-14240000D01*
X13826109Y-14249524D01*
X13835633Y-14268571D01*
X13835633Y-14287619D01*
X13826109Y-14316190D01*
X13711824Y-14430476D01*
X13835633Y-14430476D01*
X13959443Y-14230476D02*
X13978490Y-14230476D01*
X13997538Y-14240000D01*
X14007062Y-14249524D01*
X14016586Y-14268571D01*
X14026109Y-14306667D01*
X14026109Y-14354286D01*
X14016586Y-14392381D01*
X14007062Y-14411428D01*
X13997538Y-14420952D01*
X13978490Y-14430476D01*
X13959443Y-14430476D01*
X13940395Y-14420952D01*
X13930871Y-14411428D01*
X13921348Y-14392381D01*
X13911824Y-14354286D01*
X13911824Y-14306667D01*
X13921348Y-14268571D01*
X13930871Y-14249524D01*
X13940395Y-14240000D01*
X13959443Y-14230476D01*
X14149919Y-14230476D02*
X14168967Y-14230476D01*
X14188014Y-14240000D01*
X14197538Y-14249524D01*
X14207062Y-14268571D01*
X14216586Y-14306667D01*
X14216586Y-14354286D01*
X14207062Y-14392381D01*
X14197538Y-14411428D01*
X14188014Y-14420952D01*
X14168967Y-14430476D01*
X14149919Y-14430476D01*
X14130871Y-14420952D01*
X14121348Y-14411428D01*
X14111824Y-14392381D01*
X14102300Y-14354286D01*
X14102300Y-14306667D01*
X14111824Y-14268571D01*
X14121348Y-14249524D01*
X14130871Y-14240000D01*
X14149919Y-14230476D01*
X14292776Y-14230476D02*
X14292776Y-14268571D01*
X14368967Y-14230476D02*
X14368967Y-14268571D01*
X14664205Y-14506667D02*
X14654681Y-14497143D01*
X14635633Y-14468571D01*
X14626109Y-14449524D01*
X14616586Y-14420952D01*
X14607062Y-14373333D01*
X14607062Y-14335238D01*
X14616586Y-14287619D01*
X14626109Y-14259048D01*
X14635633Y-14240000D01*
X14654681Y-14211428D01*
X14664205Y-14201905D01*
X14826109Y-14297143D02*
X14826109Y-14430476D01*
X14778490Y-14220952D02*
X14730871Y-14363809D01*
X14854681Y-14363809D01*
X15083252Y-14430476D02*
X15083252Y-14230476D01*
X15168967Y-14430476D02*
X15168967Y-14325714D01*
X15159443Y-14306667D01*
X15140395Y-14297143D01*
X15111824Y-14297143D01*
X15092776Y-14306667D01*
X15083252Y-14316190D01*
X15292776Y-14430476D02*
X15273728Y-14420952D01*
X15264205Y-14411428D01*
X15254681Y-14392381D01*
X15254681Y-14335238D01*
X15264205Y-14316190D01*
X15273728Y-14306667D01*
X15292776Y-14297143D01*
X15321348Y-14297143D01*
X15340395Y-14306667D01*
X15349919Y-14316190D01*
X15359443Y-14335238D01*
X15359443Y-14392381D01*
X15349919Y-14411428D01*
X15340395Y-14420952D01*
X15321348Y-14430476D01*
X15292776Y-14430476D01*
X15473728Y-14430476D02*
X15454681Y-14420952D01*
X15445157Y-14401905D01*
X15445157Y-14230476D01*
X15626109Y-14420952D02*
X15607062Y-14430476D01*
X15568967Y-14430476D01*
X15549919Y-14420952D01*
X15540395Y-14401905D01*
X15540395Y-14325714D01*
X15549919Y-14306667D01*
X15568967Y-14297143D01*
X15607062Y-14297143D01*
X15626109Y-14306667D01*
X15635633Y-14325714D01*
X15635633Y-14344762D01*
X15540395Y-14363809D01*
X15711824Y-14420952D02*
X15730871Y-14430476D01*
X15768967Y-14430476D01*
X15788014Y-14420952D01*
X15797538Y-14401905D01*
X15797538Y-14392381D01*
X15788014Y-14373333D01*
X15768967Y-14363809D01*
X15740395Y-14363809D01*
X15721348Y-14354286D01*
X15711824Y-14335238D01*
X15711824Y-14325714D01*
X15721348Y-14306667D01*
X15740395Y-14297143D01*
X15768967Y-14297143D01*
X15788014Y-14306667D01*
X15864205Y-14506667D02*
X15873728Y-14497143D01*
X15892776Y-14468571D01*
X15902300Y-14449524D01*
X15911824Y-14420952D01*
X15921348Y-14373333D01*
X15921348Y-14335238D01*
X15911824Y-14287619D01*
X15902300Y-14259048D01*
X15892776Y-14240000D01*
X15873728Y-14211428D01*
X15864205Y-14201905D01*
M02*
